<svg width="18" height="17" viewBox="0 0 18 17" fill="none" xmlns="http://www.w3.org/2000/svg">
<path d="M16.428 0.200012H0.971988C0.600288 0.200012 0.299988 0.500312 0.299988 0.872012V16.328C0.299988 16.6997 0.600288 17 0.971988 17H16.428C16.7997 17 17.1 16.6997 17.1 16.328V0.872012C17.1 0.500312 16.7997 0.200012 16.428 0.200012ZM14.4876 5.10351H13.1457C12.0936 5.10351 11.8899 5.60331 11.8899 6.33831V7.95741H14.4015L14.0739 10.4921H11.8899V17H9.27119V10.4942H7.08089V7.95741H9.27119V6.08841C9.27119 3.91911 10.5963 2.73681 12.5325 2.73681C13.4607 2.73681 14.2566 2.80611 14.4897 2.83761V5.10351H14.4876Z" fill="white"/>
</svg>
