<svg width="17" height="17" viewBox="0 0 17 17" fill="none" xmlns="http://www.w3.org/2000/svg">
<path d="M8.39774 5.79882C6.85533 5.79882 5.5966 7.05757 5.5966 8.60001C5.5966 10.1425 6.85533 11.4012 8.39774 11.4012C9.94016 11.4012 11.1989 10.1425 11.1989 8.60001C11.1989 7.05757 9.94016 5.79882 8.39774 5.79882ZM16.7991 8.60001C16.7991 7.44003 16.8096 6.29055 16.7444 5.13267C16.6793 3.78776 16.3725 2.59415 15.389 1.61069C14.4035 0.625124 13.212 0.320418 11.8671 0.255274C10.7072 0.19013 9.5577 0.200637 8.39984 0.200637C7.23988 0.200637 6.09043 0.19013 4.93257 0.255274C3.58768 0.320418 2.3941 0.627225 1.41065 1.61069C0.425104 2.59626 0.120404 3.78776 0.0552609 5.13267C-0.00988189 6.29265 0.000625043 7.44213 0.000625043 8.60001C0.000625043 9.75789 -0.00988189 10.9095 0.0552609 12.0674C0.120404 13.4123 0.427205 14.6059 1.41065 15.5893C2.3962 16.5749 3.58768 16.8796 4.93257 16.9447C6.09253 17.0099 7.24198 16.9994 8.39984 16.9994C9.5598 16.9994 10.7093 17.0099 11.8671 16.9447C13.212 16.8796 14.4056 16.5728 15.389 15.5893C16.3746 14.6038 16.6793 13.4123 16.7444 12.0674C16.8117 10.9095 16.7991 9.76 16.7991 8.60001ZM8.39774 12.91C6.01267 12.91 4.08781 10.9851 4.08781 8.60001C4.08781 6.2149 6.01267 4.29 8.39774 4.29C10.7828 4.29 12.7077 6.2149 12.7077 8.60001C12.7077 10.9851 10.7828 12.91 8.39774 12.91ZM12.8842 5.12006C12.3273 5.12006 11.8776 4.67036 11.8776 4.11348C11.8776 3.5566 12.3273 3.1069 12.8842 3.1069C13.4411 3.1069 13.8908 3.5566 13.8908 4.11348C13.8909 4.24571 13.865 4.37668 13.8145 4.49888C13.7639 4.62108 13.6898 4.73211 13.5963 4.82561C13.5028 4.91911 13.3918 4.99325 13.2696 5.04378C13.1474 5.0943 13.0164 5.12023 12.8842 5.12006Z" fill="white"/>
</svg>
