<svg width="18" height="17" viewBox="0 0 18 17" fill="none" xmlns="http://www.w3.org/2000/svg">
<g clip-path="url(#clip0_5_183)">
<path d="M17.1501 3.65589C16.5656 3.91489 15.9377 4.08989 15.2776 4.16899C15.9587 3.76145 16.4683 3.12002 16.7112 2.36439C16.0713 2.74449 15.3709 3.01203 14.6406 3.15539C14.1495 2.631 13.4989 2.28342 12.79 2.16662C12.0811 2.04983 11.3535 2.17035 10.7201 2.50947C10.0867 2.84859 9.58293 3.38735 9.2871 4.04209C8.99126 4.69682 8.91986 5.43092 9.08399 6.13039C7.78737 6.06529 6.51893 5.72828 5.36099 5.14123C4.20304 4.55418 3.18148 3.73021 2.36259 2.72279C2.08259 3.20579 1.92159 3.76579 1.92159 4.36219C1.92128 4.89909 2.05349 5.42776 2.3065 5.90131C2.55952 6.37485 2.9255 6.77862 3.37199 7.07679C2.85418 7.06032 2.3478 6.9204 1.89499 6.66869V6.71069C1.89494 7.46371 2.15541 8.19356 2.63222 8.77639C3.10902 9.35922 3.77279 9.75914 4.51089 9.90829C4.03054 10.0383 3.52693 10.0574 3.03809 9.96429C3.24634 10.6122 3.65199 11.1788 4.19825 11.5847C4.74451 11.9907 5.40403 12.2156 6.08449 12.2281C4.92937 13.1349 3.50281 13.6268 2.03429 13.6246C1.77416 13.6247 1.51424 13.6095 1.25589 13.5791C2.74652 14.5375 4.48173 15.0462 6.25389 15.0442C12.2529 15.0442 15.5324 10.0756 15.5324 5.76639C15.5324 5.62639 15.5289 5.48499 15.5226 5.34499C16.1605 4.88367 16.7111 4.31242 17.1487 3.65799L17.1501 3.65589Z" fill="white"/>
</g>
<defs>
<clipPath id="clip0_5_183">
<rect width="16.8" height="16.8" fill="white" transform="translate(0.599991 0.200012)"/>
</clipPath>
</defs>
</svg>
