<svg width="17" height="13" viewBox="0 0 17 13" fill="none" xmlns="http://www.w3.org/2000/svg">
<path d="M16.6582 2.28106C16.5626 1.90104 16.3758 1.55448 16.1163 1.27587C15.8568 0.997255 15.5337 0.796304 15.1792 0.693018C13.8647 0.30635 8.6058 0.300056 8.6058 0.300056C8.6058 0.300056 3.34776 0.293761 2.03241 0.663344C1.67811 0.771383 1.3557 0.975175 1.0961 1.25516C0.836513 1.53514 0.648466 1.88191 0.550015 2.26217C0.203341 3.67036 0.199983 6.59106 0.199983 6.59106C0.199983 6.59106 0.196625 9.52614 0.540782 10.9199C0.733845 11.6906 1.30044 12.2994 2.02066 12.5071C3.3486 12.8937 8.5932 12.9 8.5932 12.9C8.5932 12.9 13.8521 12.9063 15.1666 12.5377C15.5212 12.4345 15.8446 12.2341 16.1048 11.956C16.3649 11.678 16.5528 11.332 16.6498 10.9523C16.9973 9.54502 16.9999 6.62523 16.9999 6.62523C16.9999 6.62523 17.0166 3.68925 16.6582 2.28106ZM6.92363 9.29683L6.92782 3.90146L11.2986 6.60365L6.92363 9.29683Z" fill="white"/>
</svg>
